<?xml version="1.0" encoding="UTF-8" standalone="no"?>
<svg
   xmlns:ns="http://ns.adobe.com/SaveForWeb/1.0/"
   xmlns:dc="http://purl.org/dc/elements/1.1/"
   xmlns:cc="http://creativecommons.org/ns#"
   xmlns:rdf="http://www.w3.org/1999/02/22-rdf-syntax-ns#"
   xmlns:svg="http://www.w3.org/2000/svg"
   xmlns="http://www.w3.org/2000/svg"
   xmlns:sodipodi="http://sodipodi.sourceforge.net/DTD/sodipodi-0.dtd"
   xmlns:inkscape="http://www.inkscape.org/namespaces/inkscape"
   width="185.42046"
   height="185.42046"
   viewBox="0 0 185.42046 185.42046"
   class="css-1j8o68f"
   version="1.1"
   id="svg938"
   sodipodi:docname="icon.svg"
   inkscape:version="1.0.2 (e86c870879, 2021-01-15)">
  <metadata
     id="metadata942">
    <rdf:RDF>
      <cc:Work
         rdf:about="">
        <dc:format>image/svg+xml</dc:format>
        <dc:type
           rdf:resource="http://purl.org/dc/dcmitype/StillImage" />
        <dc:title></dc:title>
      </cc:Work>
    </rdf:RDF>
  </metadata>
  <sodipodi:namedview
     pagecolor="#ffffff"
     bordercolor="#666666"
     borderopacity="1"
     objecttolerance="10"
     gridtolerance="10"
     guidetolerance="10"
     inkscape:pageopacity="1"
     inkscape:pageshadow="2"
     inkscape:window-width="2560"
     inkscape:window-height="1376"
     id="namedview940"
     showgrid="false"
     fit-margin-top="0"
     fit-margin-left="0"
     fit-margin-right="0"
     fit-margin-bottom="0"
     inkscape:pagecheckerboard="true"
     inkscape:zoom="2.8"
     inkscape:cx="72.093655"
     inkscape:cy="104.82686"
     inkscape:window-x="0"
     inkscape:window-y="27"
     inkscape:window-maximized="1"
     inkscape:current-layer="svg938"
     inkscape:document-rotation="0" />
  <defs
     id="SvgjsDefs2937" />
  <rect
     style="fill:#ffffff;fill-opacity:1;stroke:#4a4a4a;stroke-width:1.78347;stroke-miterlimit:4;stroke-dasharray:none;stroke-opacity:1"
     id="rect952"
     width="183.63699"
     height="183.63699"
     x="0.89173502"
     y="0.89173502"
     ry="25.574602" />
  <g
     id="SvgjsG2938"
     featurekey="nRdZyp-0"
     transform="matrix(1.9377734,0,0,1.9377734,-4.1784381,-4.1784381)"
     fill="#ffcd38">
    <metadata
       id="metadata882">
      <ns:sfw>
        <ns:slices>
          <ns:slicesourcebounds
             height="73"
             width="85.5"
             x="7.25"
             y="13.5"
             bottomleftorigin="true" />
          <ns:optimizationsettings>
            <ns:targetsettings
               targetsettingsid="0"
               fileformat="GIFFormat">
              <ns:gifformat
                 transparency="true"
                 lossy="0"
                 nomattecolor="false"
                 interlaced="false"
                 numcolors="256"
                 includecaption="false"
                 mattecolor=""
                 rollovermasterpalette="false"
                 autoreduce="false"
                 reductionalgorithm="selective"
                 ditheralgorithm="diffusion"
                 webshiftpercent="0"
                 ditherpercent="100">
                <ns:colortable
                   isexact="false" />
                <ns:lockedcolors>
                  <ns:colorshiftentries />
                </ns:lockedcolors>
              </ns:gifformat>
            </ns:targetsettings>
          </ns:optimizationsettings>
        </ns:slices>
      </ns:sfw>
    </metadata>
    <g
       id="g932">
      <path
         d="m 23.75,21 c -0.829,0 -1.5,0.671 -1.5,1.5 v 25 c 0,0.829 0.671,1.5 1.5,1.5 0.829,0 1.5,-0.671 1.5,-1.5 v -25 c 0,-0.829 -0.671,-1.5 -1.5,-1.5 z"
         id="path884" />
      <path
         d="m 31.25,25.688 c -0.829,0 -1.5,0.671 -1.5,1.5 V 47.5 c 0,0.829 0.671,1.5 1.5,1.5 0.829,0 1.5,-0.671 1.5,-1.5 V 27.188 c 0,-0.829 -0.671,-1.5 -1.5,-1.5 z"
         id="path886" />
      <path
         d="m 38.75,29.75 c -0.829,0 -1.5,0.671 -1.5,1.5 V 47.5 c 0,0.829 0.671,1.5 1.5,1.5 0.829,0 1.5,-0.671 1.5,-1.5 V 31.25 c 0,-0.829 -0.671,-1.5 -1.5,-1.5 z"
         id="path888" />
      <path
         d="m 46.25,17.562 c -0.829,0 -1.5,0.671 -1.5,1.5 V 47.5 c 0,0.829 0.671,1.5 1.5,1.5 0.829,0 1.5,-0.671 1.5,-1.5 V 19.062 c 0,-0.828 -0.671,-1.5 -1.5,-1.5 z"
         id="path890" />
      <path
         d="m 53.75,33.812 c -0.828,0 -1.5,0.671 -1.5,1.5 V 47.5 c 0,0.829 0.672,1.5 1.5,1.5 0.828,0 1.5,-0.671 1.5,-1.5 V 35.312 c 0,-0.828 -0.672,-1.5 -1.5,-1.5 z"
         id="path892" />
      <path
         d="m 61.25,23.5 c -0.828,0 -1.5,0.671 -1.5,1.5 v 22.5 c 0,0.829 0.672,1.5 1.5,1.5 0.828,0 1.5,-0.671 1.5,-1.5 V 25 c 0,-0.829 -0.672,-1.5 -1.5,-1.5 z"
         id="path894" />
      <path
         d="m 68.75,21 c -0.828,0 -1.5,0.671 -1.5,1.5 v 25 c 0,0.829 0.672,1.5 1.5,1.5 0.828,0 1.5,-0.671 1.5,-1.5 v -25 c 0,-0.829 -0.672,-1.5 -1.5,-1.5 z"
         id="path896" />
      <path
         d="m 76.25,13.5 c -0.828,0 -1.5,0.671 -1.5,1.5 v 32.5 c 0,0.829 0.672,1.5 1.5,1.5 0.828,0 1.5,-0.671 1.5,-1.5 V 15 c 0,-0.829 -0.672,-1.5 -1.5,-1.5 z"
         id="path898" />
      <path
         d="m 83.75,25.688 c -0.828,0 -1.5,0.671 -1.5,1.5 V 47.5 c 0,0.829 0.672,1.5 1.5,1.5 0.828,0 1.5,-0.671 1.5,-1.5 V 27.188 c 0,-0.829 -0.672,-1.5 -1.5,-1.5 z"
         id="path900" />
      <path
         d="m 91.25,37.875 c -0.828,0 -1.5,0.671 -1.5,1.5 V 47.5 c 0,0.829 0.672,1.5 1.5,1.5 0.828,0 1.5,-0.671 1.5,-1.5 v -8.125 c 0,-0.829 -0.672,-1.5 -1.5,-1.5 z"
         id="path902" />
      <path
         d="m 16.25,28.5 c -0.829,0 -1.5,0.671 -1.5,1.5 v 17.5 c 0,0.829 0.671,1.5 1.5,1.5 0.829,0 1.5,-0.671 1.5,-1.5 V 30 c 0,-0.829 -0.671,-1.5 -1.5,-1.5 z"
         id="path904" />
      <path
         d="m 8.75,37.875 c -0.829,0 -1.5,0.671 -1.5,1.5 V 47.5 c 0,0.829 0.671,1.5 1.5,1.5 0.829,0 1.5,-0.671 1.5,-1.5 v -8.125 c 0,-0.829 -0.671,-1.5 -1.5,-1.5 z"
         id="path906" />
      <path
         d="m 23.75,51 c -0.829,0 -1.5,0.672 -1.5,1.5 v 25 c 0,0.828 0.671,1.5 1.5,1.5 0.829,0 1.5,-0.672 1.5,-1.5 v -25 c 0,-0.828 -0.671,-1.5 -1.5,-1.5 z"
         id="path908" />
      <path
         d="m 31.25,51 c -0.829,0 -1.5,0.672 -1.5,1.5 v 20.312 c 0,0.828 0.671,1.5 1.5,1.5 0.829,0 1.5,-0.672 1.5,-1.5 V 52.5 c 0,-0.828 -0.671,-1.5 -1.5,-1.5 z"
         id="path910" />
      <path
         d="m 38.75,51 c -0.829,0 -1.5,0.672 -1.5,1.5 v 16.25 c 0,0.828 0.671,1.5 1.5,1.5 0.829,0 1.5,-0.672 1.5,-1.5 V 52.5 c 0,-0.828 -0.671,-1.5 -1.5,-1.5 z"
         id="path912" />
      <path
         d="m 46.25,51 c -0.829,0 -1.5,0.672 -1.5,1.5 v 28.438 c 0,0.828 0.671,1.5 1.5,1.5 0.829,0 1.5,-0.672 1.5,-1.5 V 52.5 c 0,-0.828 -0.671,-1.5 -1.5,-1.5 z"
         id="path914" />
      <path
         d="m 53.75,51 c -0.828,0 -1.5,0.672 -1.5,1.5 v 12.188 c 0,0.828 0.672,1.5 1.5,1.5 0.828,0 1.5,-0.672 1.5,-1.5 V 52.5 c 0,-0.828 -0.672,-1.5 -1.5,-1.5 z"
         id="path916" />
      <path
         d="m 61.25,51 c -0.828,0 -1.5,0.672 -1.5,1.5 V 75 c 0,0.828 0.672,1.5 1.5,1.5 0.828,0 1.5,-0.672 1.5,-1.5 V 52.5 c 0,-0.828 -0.672,-1.5 -1.5,-1.5 z"
         id="path918" />
      <path
         d="m 68.75,51 c -0.828,0 -1.5,0.672 -1.5,1.5 v 25 c 0,0.828 0.672,1.5 1.5,1.5 0.828,0 1.5,-0.672 1.5,-1.5 v -25 c 0,-0.828 -0.672,-1.5 -1.5,-1.5 z"
         id="path920" />
      <path
         d="m 76.25,51 c -0.828,0 -1.5,0.672 -1.5,1.5 V 85 c 0,0.828 0.672,1.5 1.5,1.5 0.828,0 1.5,-0.672 1.5,-1.5 V 52.5 c 0,-0.828 -0.672,-1.5 -1.5,-1.5 z"
         id="path922" />
      <path
         d="m 83.75,51 c -0.828,0 -1.5,0.672 -1.5,1.5 v 20.312 c 0,0.828 0.672,1.5 1.5,1.5 0.828,0 1.5,-0.672 1.5,-1.5 V 52.5 c 0,-0.828 -0.672,-1.5 -1.5,-1.5 z"
         id="path924" />
      <path
         d="m 91.25,51 c -0.828,0 -1.5,0.672 -1.5,1.5 v 8.125 c 0,0.828 0.672,1.5 1.5,1.5 0.828,0 1.5,-0.672 1.5,-1.5 V 52.5 c 0,-0.828 -0.672,-1.5 -1.5,-1.5 z"
         id="path926" />
      <path
         d="m 16.25,51 c -0.829,0 -1.5,0.672 -1.5,1.5 V 70 c 0,0.828 0.671,1.5 1.5,1.5 0.829,0 1.5,-0.672 1.5,-1.5 V 52.5 c 0,-0.828 -0.671,-1.5 -1.5,-1.5 z"
         id="path928" />
      <path
         d="m 8.75,51 c -0.829,0 -1.5,0.672 -1.5,1.5 v 8.125 c 0,0.828 0.671,1.5 1.5,1.5 0.829,0 1.5,-0.672 1.5,-1.5 V 52.5 C 10.25,51.672 9.579,51 8.75,51 Z"
         id="path930" />
    </g>
  </g>
  <g
     id="SvgjsG2939"
     featurekey="Q4qmbg-0"
     transform="matrix(4.9404366,0,0,4.9404366,10.740602,29.818474)"
     fill="#4a4a4a"
     style="stroke:#ffffff;stroke-width:0.319112;stroke-miterlimit:4;stroke-dasharray:none;stroke-opacity:1">
    <path
       d="m 3.48,13.24 c 0,1.18 5,0.62 5,3.74 0,2.04 -1.8,3.18 -4.04,3.18 -1.42,0 -2.84,-0.7 -3.96,-1.82 L 2.42,16.4 c 0.56,0.68 1.36,1.2 2.02,1.26 C 5.1,17.72 5.66,17.44 5.76,17.14 6,16.38 4.62,16.34 4.2,16.22 2.62,15.74 0.78,15.08 0.78,13.12 c 0,-2.34 2.44,-3.14 3.66,-3.14 1.4,0 2.82,0.64 3.96,1.8 L 6.48,13.7 C 5.96,13.02 5.06,12.48 4.44,12.48 4.12,12.48 3.48,12.6 3.48,13.24 Z M 15.723896,5.82 v 2.34 c -0.42,-0.38 -1.08,-0.4 -1.26,-0.4 -1.02,0 -1.08,1.08 -1.08,1.9 v 0.46 h 2.34 v 2.44 h -2.34 V 20 h -2.96 V 12.56 H 9.3238958 V 10.12 H 10.423896 V 9.66 c 0,-3.12 1.16,-4.36 3.68,-4.36 0.6,0 1.16,0.24 1.62,0.52 z m 9.963896,4.3 -3.5,4.94 3.5,4.94 h -3.4 l -1.68,-2.72 -1.68,2.72 h -3.42 l 3.52,-4.94 -3.52,-4.94 h 3.4 l 1.68,2.7 c 0.6,-0.88 1.12,-1.84 1.7,-2.7 z m 7.063895,0.14 -0.4,2.22 c -0.74,-0.32 -0.88,-0.26 -1.22,-0.26 -1.2,0 -1.9,0.64 -1.9,2.22 V 20 h -2.96 v -9.88 h 2.96 V 11 c 0.38,-0.68 1.420001,-1.02 2.08,-1.02 0.62,0 0.98,0.02 1.44,0.28 z"
       id="path935"
       style="stroke:#ffffff;stroke-width:0.319112;stroke-miterlimit:4;stroke-dasharray:none;stroke-opacity:1" />
  </g>
</svg>
