<?xml version="1.0" encoding="UTF-8" standalone="no"?>
<svg
   xmlns:dc="http://purl.org/dc/elements/1.1/"
   xmlns:cc="http://creativecommons.org/ns#"
   xmlns:rdf="http://www.w3.org/1999/02/22-rdf-syntax-ns#"
   xmlns:svg="http://www.w3.org/2000/svg"
   xmlns="http://www.w3.org/2000/svg"
   xmlns:sodipodi="http://sodipodi.sourceforge.net/DTD/sodipodi-0.dtd"
   xmlns:inkscape="http://www.inkscape.org/namespaces/inkscape"
   version="1.1"
   x="0px"
   y="0px"
   viewBox="0 0 92 24"
   enable-background="new 0 0 100 100"
   xml:space="preserve"
   id="svg50"
   sodipodi:docname="noun_Squarewave_538698.svg"
   width="92"
   height="24"
   inkscape:version="1.0.2 (e86c870879, 2021-01-15)"><metadata
     id="metadata56"><rdf:RDF><cc:Work
         rdf:about=""><dc:format>image/svg+xml</dc:format><dc:type
           rdf:resource="http://purl.org/dc/dcmitype/StillImage" /><dc:title></dc:title></cc:Work></rdf:RDF></metadata><defs
     id="defs54" /><sodipodi:namedview
     pagecolor="#ffffff"
     bordercolor="#666666"
     borderopacity="1"
     objecttolerance="10"
     gridtolerance="10"
     guidetolerance="10"
     inkscape:pageopacity="0"
     inkscape:pageshadow="2"
     inkscape:window-width="1815"
     inkscape:window-height="913"
     id="namedview52"
     showgrid="false"
     fit-margin-top="0"
     fit-margin-left="0"
     fit-margin-right="0"
     fit-margin-bottom="0"
     inkscape:zoom="32.256"
     inkscape:cx="76.510159"
     inkscape:cy="19.62789"
     inkscape:window-x="3134"
     inkscape:window-y="183"
     inkscape:window-maximized="0"
     inkscape:current-layer="svg50" /><g
     id="g40"
     transform="translate(-5.0000001,-39.000001)"><path
       fill="#000000"
       stroke="#000000"
       stroke-miterlimit="10"
       d="M 32.3,47.2"
       id="path38" /></g><g
     id="g44"
     transform="matrix(1.0222222,0,0,1.0909091,-5.111111,-42.545455)"><polygon
       points="5,39 21,39 21,59 34,59 34,39 51,39 51,59 64,59 64,39 81,39 81,59 95,59 95,61 79,61 79,41 66,41 66,61 49,61 49,41 36,41 36,61 19,61 19,41 5,41 "
       id="polygon42" /></g></svg>
