<?xml version="1.0" encoding="UTF-8" standalone="no"?>
<svg
   xmlns:dc="http://purl.org/dc/elements/1.1/"
   xmlns:cc="http://creativecommons.org/ns#"
   xmlns:rdf="http://www.w3.org/1999/02/22-rdf-syntax-ns#"
   xmlns:svg="http://www.w3.org/2000/svg"
   xmlns="http://www.w3.org/2000/svg"
   xmlns:sodipodi="http://sodipodi.sourceforge.net/DTD/sodipodi-0.dtd"
   xmlns:inkscape="http://www.inkscape.org/namespaces/inkscape"
   width="92.010635mm"
   height="23.987123mm"
   viewBox="0 0 92.010635 23.987123"
   version="1.1"
   id="svg4753"
   inkscape:version="1.0.2 (e86c870879, 2021-01-15)"
   sodipodi:docname="waveform_noise.svg">
  <defs
     id="defs4747" />
  <sodipodi:namedview
     id="base"
     pagecolor="#ffffff"
     bordercolor="#666666"
     borderopacity="1.0"
     inkscape:pageopacity="0.0"
     inkscape:pageshadow="2"
     inkscape:zoom="2.8"
     inkscape:cx="73.574511"
     inkscape:cy="97.614799"
     inkscape:document-units="mm"
     inkscape:current-layer="layer1"
     inkscape:document-rotation="0"
     showgrid="false"
     fit-margin-top="0"
     fit-margin-left="0"
     fit-margin-right="0"
     fit-margin-bottom="0"
     inkscape:window-width="1514"
     inkscape:window-height="1199"
     inkscape:window-x="2836"
     inkscape:window-y="91"
     inkscape:window-maximized="0" />
  <metadata
     id="metadata4750">
    <rdf:RDF>
      <cc:Work
         rdf:about="">
        <dc:format>image/svg+xml</dc:format>
        <dc:type
           rdf:resource="http://purl.org/dc/dcmitype/StillImage" />
        <dc:title></dc:title>
      </cc:Work>
    </rdf:RDF>
  </metadata>
  <g
     inkscape:label="Layer 1"
     inkscape:groupmode="layer"
     id="layer1"
     transform="translate(-39.518075,71.810316)">
    <path
       style="fill:none;stroke:#000000;stroke-width:1.34011;stroke-linecap:butt;stroke-linejoin:miter;stroke-miterlimit:4;stroke-dasharray:none;stroke-opacity:1"
       d="m 40.164709,-53.919882 3.650034,-13.440519 c 1.656296,-4.86941 3.25395,12.701904 5.88654,3.852409 l 2.494275,-5.958268 c 2.0903,-6.547272 1.776231,8.635935 2.664345,12.953902 2.429403,4.715902 3.533977,-10.103255 5.04297,-8.570417 2.056749,3.91828 1.116422,17.259972 3.45681,12.142786 L 67.72104,-66.25399 c 2.296645,-6.112225 2.186322,11.342882 3.423818,13.112336 1.109693,3.687967 3.891004,-10.811431 6.302013,-15.510724 2.294601,-6.328877 2.963814,10.685863 5.162244,6.663813 l 2.565077,-7.282232 c 1.128289,-4.557364 1.067056,-1.172975 5.409604,13.850331 0.986916,1.951316 1.987437,3.452941 3.245468,-3.557756 1.003769,-8.843533 2.51503,4.457801 4.534841,8.919828 2.654405,4.780544 2.640595,-9.097903 4.624885,-14.961318 2.13565,-7.181718 1.26137,9.77049 3.72514,15.345544 2.19672,6.0176 4.03,-12.547554 6.52956,-19.134145 1.15436,-3.80272 2.56283,5.239844 5.2979,13.304568 2.2092,4.695201 4.8362,-7.42723 7.25603,-11.210854 2.6363,-5.648143 4.22471,9.304219 5.07071,14.228569"
       id="path4734"
       sodipodi:nodetypes="ccccccccccccccccccccc" />
  </g>
</svg>
