<?xml version="1.0" encoding="UTF-8" standalone="no"?>
<svg
   xmlns:dc="http://purl.org/dc/elements/1.1/"
   xmlns:cc="http://creativecommons.org/ns#"
   xmlns:rdf="http://www.w3.org/1999/02/22-rdf-syntax-ns#"
   xmlns:svg="http://www.w3.org/2000/svg"
   xmlns="http://www.w3.org/2000/svg"
   xmlns:sodipodi="http://sodipodi.sourceforge.net/DTD/sodipodi-0.dtd"
   xmlns:inkscape="http://www.inkscape.org/namespaces/inkscape"
   version="1.1"
   x="0px"
   y="0px"
   viewBox="0 0 92 24"
   enable-background="new 0 0 100 100"
   xml:space="preserve"
   id="svg30"
   sodipodi:docname="noun_Sine Wave_538697.svg"
   width="92"
   height="24"
   inkscape:version="1.0.2 (e86c870879, 2021-01-15)"><metadata
     id="metadata36"><rdf:RDF><cc:Work
         rdf:about=""><dc:format>image/svg+xml</dc:format><dc:type
           rdf:resource="http://purl.org/dc/dcmitype/StillImage" /><dc:title></dc:title></cc:Work></rdf:RDF></metadata><defs
     id="defs34" /><sodipodi:namedview
     pagecolor="#ffffff"
     bordercolor="#666666"
     borderopacity="1"
     objecttolerance="10"
     gridtolerance="10"
     guidetolerance="10"
     inkscape:pageopacity="0"
     inkscape:pageshadow="2"
     inkscape:window-width="2272"
     inkscape:window-height="1056"
     id="namedview32"
     showgrid="false"
     fit-margin-top="0"
     fit-margin-left="0"
     fit-margin-right="0"
     fit-margin-bottom="0"
     inkscape:zoom="8.064"
     inkscape:cx="38.8"
     inkscape:cy="23.199998"
     inkscape:window-x="151"
     inkscape:window-y="174"
     inkscape:window-maximized="0"
     inkscape:current-layer="svg30" /><g
     id="g24"
     transform="matrix(1.164557,0,0,1.1162791,-13.043038,-43.869769)"><path
       d="m 89.2,60.8 c -4.5,0 -6.6,-5.3 -8.6,-10.4 -1.8,-4.5 -3.6,-9.1 -6.8,-9.1 -3.2,0 -5,4.6 -6.8,9.1 -2,5.1 -4.1,10.4 -8.6,10.4 -4.5,0 -6.6,-5.3 -8.6,-10.4 -1.8,-4.5 -3.6,-9.1 -6.8,-9.1 -3.2,0 -5,4.6 -6.8,9.1 -2,5.1 -4.1,10.4 -8.6,10.4 -4.5,0 -6.6,-5.3 -8.6,-10.4 -1.8,-4.5 -3.6,-9.1 -6.8,-9.1 -0.6,0 -1,-0.4 -1,-1 0,-0.6 0.4,-1 1,-1 4.5,0 6.6,5.3 8.6,10.4 1.8,4.5 3.6,9.1 6.8,9.1 3.2,0 5,-4.6 6.8,-9.1 2,-5.1 4.1,-10.4 8.6,-10.4 4.5,0 6.6,5.3 8.6,10.4 1.8,4.5 3.6,9.1 6.8,9.1 3.2,0 5,-4.6 6.8,-9.1 2,-5.1 4.1,-10.4 8.6,-10.4 4.5,0 6.6,5.3 8.6,10.4 1.8,4.5 3.6,9.1 6.8,9.1 0.6,0 1,0.4 1,1 0,0.6 -0.4,1 -1,1 z"
       id="path22" /></g></svg>
